# xmcd CD database file
#
# Track frame offsets:
#	150
#	12907
#	23209
#	33211
#	43465
#	55404
#	66900
#	76633
#	88510
#	100613
#	110778
#	122572
#	134572
#	145343
#	156038
#	165470
#	177233
#	188383
#	200332
#	213287
#	224415
#	235954
#	245276
#	255675
#	266598
#	276840
#	286975
#	297979
#	308931
#	320642
#	330623
#	340897
#
# Disc length: 4671 seconds
#
# Revision: 2
# Processed by: cddbd v1.5.2PL0 Copyright (c) Steve Scherf et al.
# Submitted via: jetAudio 7
#
DISCID=da123d20
DTITLE=Chet Atkins - The Early Years 1946-1957 Disc 2
DYEAR=2007
DGENRE=Country
TTITLE0=Boogie Man Boogie
TTITLE1=Main Street Breakdown
TTITLE2=Confusin'
TTITLE3=Music In My Heart
TTITLE4=Indian Love Call
TTITLE5=Birth Of The Blues
TTITLE6=Mountain Melody
TTITLE7=You're Always Brand New
TTITLE8=My Crazy Heart
TTITLE9=Hybrid Corn
TTITLE10=Jitterbug Waltz
TTITLE11=One Man Boogie
TTITLE12=Crazy Rhythm
TTITLE13=Crazy Rhythm
TTITLE14=Rustic Dance
TTITLE15=Rainbow
TTITLE16=In The Mood
TTITLE17=Spanish Fandango
TTITLE18=Midnight
TTITLE19=Good-Bye Blues
TTITLE20=Your Mean Little Heart
TTITLE21=Sweet Bunch Of Daisies
TTITLE22=Blue Gypsy
TTITLE23=The Third Man Theme
TTITLE24=St. Louis Blues
TTITLE25=Nobody's Sweetheart
TTITLE26=Lover Come Back To Me
TTITLE27=Stephen Foster Melody
TTITLE28=Hangover Blues
TTITLE29=Imagination
TTITLE30=Black Mountain Rag
TTITLE31=Guitar Polka
EXTD=
EXTT0=
EXTT1=
EXTT2=
EXTT3=
EXTT4=
EXTT5=
EXTT6=
EXTT7=
EXTT8=
EXTT9=
EXTT10=
EXTT11=
EXTT12=
EXTT13=
EXTT14=
EXTT15=
EXTT16=
EXTT17=
EXTT18=
EXTT19=
EXTT20=
EXTT21=
EXTT22=
EXTT23=
EXTT24=
EXTT25=
EXTT26=
EXTT27=
EXTT28=
EXTT29=
EXTT30=
EXTT31=
PLAYORDER=
